<?xml version="1.0" standalone="no"?>
<!DOCTYPE svg PUBLIC "-//W3C//DTD SVG 20010904//EN"
 "http://www.w3.org/TR/2001/REC-SVG-20010904/DTD/svg10.dtd">
<svg version="1.0" xmlns="http://www.w3.org/2000/svg"
 width="225.000000pt" height="225.000000pt" viewBox="0 0 225.000000 225.000000"
 preserveAspectRatio="xMidYMid meet">

<g transform="translate(0.000000,225.000000) scale(0.100000,-0.100000)"
fill="#000000" stroke="none">
<path d="M975 2096 c-312 -49 -584 -247 -725 -526 -275 -547 2 -1199 586
-1383 451 -142 951 70 1164 493 302 601 -66 1314 -730 1415 -112 18 -186 18
-295 1z m324 -146 c115 -23 269 -96 359 -170 191 -156 312 -410 312 -655 0
-245 -121 -499 -312 -655 -140 -114 -352 -190 -533 -190 -181 0 -393 76 -533
190 -191 156 -312 410 -312 655 0 181 76 393 190 533 198 242 521 356 829 292z"/>
<path d="M885 1678 c-11 -6 -23 -16 -27 -22 -4 -6 -8 -246 -8 -533 0 -451 2
-524 15 -537 27 -26 56 -29 84 -8 l26 19 5 194 5 194 75 0 75 0 151 -200 c83
-110 162 -206 175 -213 52 -29 115 31 90 85 -6 13 -65 95 -130 182 l-120 159
53 26 c63 31 130 100 157 162 93 208 -20 439 -240 490 -71 17 -357 18 -386 2z
m364 -138 c161 -46 210 -245 87 -358 -55 -50 -114 -65 -251 -60 l-100 3 -3
213 -2 212 117 0 c65 0 133 -4 152 -10z"/>
</g>
</svg>
